<svg xmlns="http://www.w3.org/2000/svg" viewBox="0 0 1000 660" width="1000" height="660" font-family="ui-sans-serif,system-ui,Segoe UI,Roboto,sans-serif" role="img" aria-label="Last Monitor architecture">
  <defs>
    <marker id="arr" viewBox="0 0 10 10" refX="9" refY="5" markerWidth="7" markerHeight="7" orient="auto-start-reverse">
      <path d="M0 0 L10 5 L0 10 z" fill="#34E1C4"/>
    </marker>
    <marker id="arrM" viewBox="0 0 10 10" refX="9" refY="5" markerWidth="7" markerHeight="7" orient="auto-start-reverse">
      <path d="M0 0 L10 5 L0 10 z" fill="#64748B"/>
    </marker>
    <style>
      .panel{fill:#10151F;stroke:#1E2632;stroke-width:1.5;rx:14}
      .hub{fill:#0E1A1E;stroke:#34E1C4;stroke-width:2}
      .chip{fill:#141A26;stroke:#283242;stroke-width:1}
      .t{fill:#E7ECF3} .m{fill:#94A3B8} .f{fill:#64748B} .a{fill:#34E1C4}
      .h{font-weight:700} .lbl{fill:#64748B;font-size:11px}
      .wire{stroke:#34E1C4;stroke-width:1.8;fill:none}
      .wireM{stroke:#64748B;stroke-width:1.6;fill:none;stroke-dasharray:5 4}
      text{font-size:13px}
    </style>
  </defs>

  <rect width="1000" height="660" fill="#0B0E14"/>
  <text x="36" y="42" class="t h" font-size="20">Last Monitor — architecture</text>
  <text x="36" y="64" class="f" font-size="13">Single Rust/Axum binary (embeds the Vue SPA) · agents push in · two Postgres databases</text>

  <!-- ===== clients (top) ===== -->
  <g>
    <rect class="panel" x="300" y="92" width="190" height="58" rx="14"/>
    <text x="395" y="116" text-anchor="middle" class="t h">Browser</text>
    <text x="395" y="135" text-anchor="middle" class="m" font-size="11">Vue SPA · session cookie</text>

    <rect class="panel" x="510" y="92" width="190" height="58" rx="14"/>
    <text x="605" y="116" text-anchor="middle" class="t h">Scripts / AI (MCP)</text>
    <text x="605" y="135" text-anchor="middle" class="m" font-size="11">Authorization: Bearer PAT</text>
  </g>

  <!-- ===== hub (center) ===== -->
  <rect class="hub" x="300" y="210" width="400" height="250" rx="16"/>
  <text x="500" y="236" text-anchor="middle" class="a h" font-size="15">last-hub</text>
  <text x="500" y="254" text-anchor="middle" class="f" font-size="11">one binary · serves / (SPA) and /api</text>
  <!-- inner chips -->
  <g>
    <rect class="chip" x="320" y="272" width="170" height="40" rx="9"/>
    <text x="405" y="289" text-anchor="middle" class="t" font-size="12">Ingest /pub/ingest</text>
    <text x="405" y="304" text-anchor="middle" class="f" font-size="10">x-agent-token</text>

    <rect class="chip" x="510" y="272" width="170" height="40" rx="9"/>
    <text x="595" y="289" text-anchor="middle" class="t" font-size="12">Probe engine</text>
    <text x="595" y="304" text-anchor="middle" class="f" font-size="10">HTTP · TCP · DNS · TLS</text>

    <rect class="chip" x="320" y="320" width="170" height="40" rx="9"/>
    <text x="405" y="337" text-anchor="middle" class="t" font-size="12">Alert engine</text>
    <text x="405" y="352" text-anchor="middle" class="f" font-size="10">rules → notify</text>

    <rect class="chip" x="510" y="320" width="170" height="40" rx="9"/>
    <text x="595" y="337" text-anchor="middle" class="t" font-size="12">Auth · RBAC</text>
    <text x="595" y="352" text-anchor="middle" class="f" font-size="10">cookie / PAT / agent</text>

    <rect class="chip" x="320" y="368" width="170" height="40" rx="9"/>
    <text x="405" y="385" text-anchor="middle" class="t" font-size="12">JSON API</text>
    <text x="405" y="400" text-anchor="middle" class="f" font-size="10">+ public status pages</text>

    <rect class="chip" x="510" y="368" width="170" height="40" rx="9"/>
    <text x="595" y="385" text-anchor="middle" class="t" font-size="12">MCP server</text>
    <text x="595" y="400" text-anchor="middle" class="f" font-size="10">POST /mcp · JSON-RPC</text>
  </g>
  <text x="500" y="438" text-anchor="middle" class="f" font-size="11">namespace-scoped RBAC · opaque DB-backed sessions</text>

  <!-- ===== left: fleet + external services ===== -->
  <rect class="panel" x="36" y="220" width="216" height="96" rx="14"/>
  <text x="144" y="246" text-anchor="middle" class="t h">Your servers ×N</text>
  <text x="144" y="268" text-anchor="middle" class="m" font-size="12">each runs last-agent</text>
  <text x="144" y="294" text-anchor="middle" class="f" font-size="11">collects host metrics (sysinfo)</text>
  <text x="144" y="309" text-anchor="middle" class="f" font-size="11">behind NAT / firewall</text>

  <rect class="panel" x="36" y="360" width="216" height="78" rx="14"/>
  <text x="144" y="386" text-anchor="middle" class="t h">Services and endpoints</text>
  <text x="144" y="408" text-anchor="middle" class="m" font-size="12">sites, APIs, ports, certs</text>
  <text x="144" y="426" text-anchor="middle" class="f" font-size="11">the hub checks these</text>

  <!-- ===== right: two databases ===== -->
  <g>
    <rect class="panel" x="752" y="214" width="212" height="92" rx="14"/>
    <text x="858" y="240" text-anchor="middle" class="t h">config DB</text>
    <text x="858" y="261" text-anchor="middle" class="m" font-size="11">Postgres</text>
    <text x="858" y="282" text-anchor="middle" class="f" font-size="11">users · namespaces · RBAC</text>
    <text x="858" y="297" text-anchor="middle" class="f" font-size="11">configs · alerts · pages</text>

    <rect class="panel" x="752" y="356" width="212" height="96" rx="14"/>
    <text x="858" y="382" text-anchor="middle" class="t h">data DB</text>
    <text x="858" y="403" text-anchor="middle" class="m" font-size="11">Postgres + TimescaleDB</text>
    <text x="858" y="424" text-anchor="middle" class="f" font-size="11">metrics · heartbeats (hypertables)</text>
    <text x="858" y="439" text-anchor="middle" class="f" font-size="11">rollups · retention</text>
  </g>
  <text x="858" y="332" text-anchor="middle" class="f" font-size="11">never JOIN across — IDs only</text>

  <!-- ===== notify channels (bottom) ===== -->
  <rect class="panel" x="300" y="540" width="400" height="64" rx="14"/>
  <text x="500" y="566" text-anchor="middle" class="t h">Notify channels</text>
  <text x="500" y="587" text-anchor="middle" class="m" font-size="12">Telegram · Slack · Discord · Webhook · Email</text>

  <!-- ===== wires ===== -->
  <!-- agents push into ingest (outbound from servers) -->
  <path class="wire" d="M252 262 H300" marker-end="url(#arr)"/>
  <text x="276" y="252" text-anchor="middle" class="lbl">push</text>
  <!-- hub probes external services (outbound from hub) -->
  <path class="wire" d="M300 392 C 280 392, 270 399, 252 399" marker-end="url(#arr)"/>
  <text x="276" y="384" text-anchor="middle" class="lbl">probe</text>
  <!-- hub <-> config db -->
  <path class="wire" d="M700 300 H752" marker-end="url(#arr)" marker-start="url(#arr)"/>
  <!-- hub <-> data db -->
  <path class="wire" d="M700 372 H752" marker-end="url(#arr)" marker-start="url(#arr)"/>
  <!-- clients -> hub -->
  <path class="wire" d="M395 150 V210" marker-end="url(#arr)"/>
  <path class="wire" d="M605 150 V210" marker-end="url(#arr)"/>
  <!-- alert engine -> notify -->
  <path class="wire" d="M500 460 V540" marker-end="url(#arr)"/>
  <text x="520" y="505" class="lbl">alerts fire</text>
</svg>
